<svg id="visual" viewBox="0 0 675 900" width="675" height="900" xmlns="http://www.w3.org/2000/svg" xmlns:xlink="http://www.w3.org/1999/xlink" version="1.1"><rect x="0" y="0" width="675" height="900" fill="#7b2cbf"></rect><defs><linearGradient id="grad1_0" x1="0%" y1="100%" x2="100%" y2="0%"><stop offset="30%" stop-color="#3d0d6c" stop-opacity="1"></stop><stop offset="70%" stop-color="#3d0d6c" stop-opacity="1"></stop></linearGradient></defs><defs><linearGradient id="grad1_1" x1="0%" y1="100%" x2="100%" y2="0%"><stop offset="30%" stop-color="#3d0d6c" stop-opacity="1"></stop><stop offset="70%" stop-color="#511787" stop-opacity="1"></stop></linearGradient></defs><defs><linearGradient id="grad1_2" x1="0%" y1="100%" x2="100%" y2="0%"><stop offset="30%" stop-color="#6521a3" stop-opacity="1"></stop><stop offset="70%" stop-color="#511787" stop-opacity="1"></stop></linearGradient></defs><defs><linearGradient id="grad1_3" x1="0%" y1="100%" x2="100%" y2="0%"><stop offset="30%" stop-color="#6521a3" stop-opacity="1"></stop><stop offset="70%" stop-color="#7b2cbf" stop-opacity="1"></stop></linearGradient></defs><defs><linearGradient id="grad2_0" x1="0%" y1="100%" x2="100%" y2="0%"><stop offset="30%" stop-color="#3d0d6c" stop-opacity="1"></stop><stop offset="70%" stop-color="#3d0d6c" stop-opacity="1"></stop></linearGradient></defs><defs><linearGradient id="grad2_1" x1="0%" y1="100%" x2="100%" y2="0%"><stop offset="30%" stop-color="#511787" stop-opacity="1"></stop><stop offset="70%" stop-color="#3d0d6c" stop-opacity="1"></stop></linearGradient></defs><defs><linearGradient id="grad2_2" x1="0%" y1="100%" x2="100%" y2="0%"><stop offset="30%" stop-color="#511787" stop-opacity="1"></stop><stop offset="70%" stop-color="#6521a3" stop-opacity="1"></stop></linearGradient></defs><defs><linearGradient id="grad2_3" x1="0%" y1="100%" x2="100%" y2="0%"><stop offset="30%" stop-color="#7b2cbf" stop-opacity="1"></stop><stop offset="70%" stop-color="#6521a3" stop-opacity="1"></stop></linearGradient></defs><g transform="translate(675, 900)"><path d="M-506.2 0C-504.7 -71.4 -503.1 -142.8 -467.7 -193.7C-432.4 -244.7 -363.2 -275.1 -311.1 -311.1C-259 -347.2 -223.9 -388.8 -174.9 -422.2C-125.9 -455.7 -62.9 -481 0 -506.2L0 0Z" fill="#7027b1"></path><path d="M-379.7 0C-378.5 -53.6 -377.3 -107.1 -350.8 -145.3C-324.3 -183.5 -272.4 -206.3 -233.3 -233.3C-194.3 -260.4 -167.9 -291.6 -131.2 -316.7C-94.4 -341.7 -47.2 -360.7 0 -379.7L0 0Z" fill="#5b1c95"></path><path d="M-253.1 0C-252.3 -35.7 -251.5 -71.4 -233.9 -96.9C-216.2 -122.3 -181.6 -137.6 -155.6 -155.6C-129.5 -173.6 -112 -194.4 -87.4 -211.1C-62.9 -227.8 -31.5 -240.5 0 -253.1L0 0Z" fill="#471279"></path><path d="M-126.6 0C-126.2 -17.9 -125.8 -35.7 -116.9 -48.4C-108.1 -61.2 -90.8 -68.8 -77.8 -77.8C-64.8 -86.8 -56 -97.2 -43.7 -105.6C-31.5 -113.9 -15.7 -120.2 0 -126.6L0 0Z" fill="#3d0d6c"></path></g><g transform="translate(0, 0)"><path d="M506.3 0C493.8 70.3 481.3 140.5 439.8 182.2C398.2 223.8 327.5 236.8 287.1 287.1C246.7 337.4 236.5 425 193.7 467.7C150.9 510.5 75.5 508.4 0 506.3L0 0Z" fill="#7027b1"></path><path d="M379.7 0C370.3 52.7 361 105.4 329.8 136.6C298.6 167.8 245.6 177.6 215.3 215.3C185 253 177.4 318.7 145.3 350.8C113.2 382.8 56.6 381.3 0 379.7L0 0Z" fill="#5b1c95"></path><path d="M253.1 0C246.9 35.1 240.7 70.3 219.9 91.1C199.1 111.9 163.7 118.4 143.5 143.5C123.3 168.7 118.3 212.5 96.9 233.9C75.5 255.2 37.7 254.2 0 253.1L0 0Z" fill="#471279"></path><path d="M126.6 0C123.4 17.6 120.3 35.1 109.9 45.5C99.5 55.9 81.9 59.2 71.8 71.8C61.7 84.3 59.1 106.2 48.4 116.9C37.7 127.6 18.9 127.1 0 126.6L0 0Z" fill="#3d0d6c"></path></g></svg>