<svg id="visual" viewBox="0 0 675 700" width="675" height="700" xmlns="http://www.w3.org/2000/svg" xmlns:xlink="http://www.w3.org/1999/xlink" version="1.1"><path d="M0 71L28.2 71C56.3 71 112.7 71 169 72.2C225.3 73.3 281.7 75.7 337.8 75.7C394 75.7 450 73.3 506.2 74.5C562.3 75.7 618.7 80.3 646.8 82.7L675 85L675 0L646.8 0C618.7 0 562.3 0 506.2 0C450 0 394 0 337.8 0C281.7 0 225.3 0 169 0C112.7 0 56.3 0 28.2 0L0 0Z" fill="#3c096c"></path><path d="M0 120L28.2 122.3C56.3 124.7 112.7 129.3 169 134C225.3 138.7 281.7 143.3 337.8 142.2C394 141 450 134 506.2 131.7C562.3 129.3 618.7 131.7 646.8 132.8L675 134L675 83L646.8 80.7C618.7 78.3 562.3 73.7 506.2 72.5C450 71.3 394 73.7 337.8 73.7C281.7 73.7 225.3 71.3 169 70.2C112.7 69 56.3 69 28.2 69L0 69Z" fill="#56188e"></path><path d="M0 337L28.2 331.2C56.3 325.3 112.7 313.7 169 313.7C225.3 313.7 281.7 325.3 337.8 328.8C394 332.3 450 327.7 506.2 318.3C562.3 309 618.7 295 646.8 288L675 281L675 132L646.8 130.8C618.7 129.7 562.3 127.3 506.2 129.7C450 132 394 139 337.8 140.2C281.7 141.3 225.3 136.7 169 132C112.7 127.3 56.3 122.7 28.2 120.3L0 118Z" fill="#7026b1"></path><path d="M0 477L28.2 474.7C56.3 472.3 112.7 467.7 169 466.5C225.3 465.3 281.7 467.7 337.8 467.7C394 467.7 450 465.3 506.2 467.7C562.3 470 618.7 477 646.8 480.5L675 484L675 279L646.8 286C618.7 293 562.3 307 506.2 316.3C450 325.7 394 330.3 337.8 326.8C281.7 323.3 225.3 311.7 169 311.7C112.7 311.7 56.3 323.3 28.2 329.2L0 335Z" fill="#7b2cbf"></path><path d="M0 519L28.2 520.2C56.3 521.3 112.7 523.7 169 524.8C225.3 526 281.7 526 337.8 526C394 526 450 526 506.2 528.3C562.3 530.7 618.7 535.3 646.8 537.7L675 540L675 482L646.8 478.5C618.7 475 562.3 468 506.2 465.7C450 463.3 394 465.7 337.8 465.7C281.7 465.7 225.3 463.3 169 464.5C112.7 465.7 56.3 470.3 28.2 472.7L0 475Z" fill="#7026b1"></path><path d="M0 596L28.2 597.2C56.3 598.3 112.7 600.7 169 599.5C225.3 598.3 281.7 593.7 337.8 592.5C394 591.3 450 593.7 506.2 598.3C562.3 603 618.7 610 646.8 613.5L675 617L675 538L646.8 535.7C618.7 533.3 562.3 528.7 506.2 526.3C450 524 394 524 337.8 524C281.7 524 225.3 524 169 522.8C112.7 521.7 56.3 519.3 28.2 518.2L0 517Z" fill="#56188e"></path><path d="M0 701L28.2 701C56.3 701 112.7 701 169 701C225.3 701 281.7 701 337.8 701C394 701 450 701 506.2 701C562.3 701 618.7 701 646.8 701L675 701L675 615L646.8 611.5C618.7 608 562.3 601 506.2 596.3C450 591.7 394 589.3 337.8 590.5C281.7 591.7 225.3 596.3 169 597.5C112.7 598.7 56.3 596.3 28.2 595.2L0 594Z" fill="#3c096c"></path></svg>