<svg id="visual" viewBox="0 0 900 600" width="900" height="600" xmlns="http://www.w3.org/2000/svg" xmlns:xlink="http://www.w3.org/1999/xlink" version="1.1"><path d="M0 67L21.5 64C43 61 86 55 128.8 53C171.7 51 214.3 53 257.2 55C300 57 343 59 385.8 62C428.7 65 471.3 69 514.2 68C557 67 600 61 642.8 57C685.7 53 728.3 51 771.2 50C814 49 857 49 878.5 49L900 49L900 0L878.5 0C857 0 814 0 771.2 0C728.3 0 685.7 0 642.8 0C600 0 557 0 514.2 0C471.3 0 428.7 0 385.8 0C343 0 300 0 257.2 0C214.3 0 171.7 0 128.8 0C86 0 43 0 21.5 0L0 0Z" fill="#3c096c"></path><path d="M0 151L21.5 149C43 147 86 143 128.8 138C171.7 133 214.3 127 257.2 129C300 131 343 141 385.8 148C428.7 155 471.3 159 514.2 156C557 153 600 143 642.8 134C685.7 125 728.3 117 771.2 113C814 109 857 109 878.5 109L900 109L900 47L878.5 47C857 47 814 47 771.2 48C728.3 49 685.7 51 642.8 55C600 59 557 65 514.2 66C471.3 67 428.7 63 385.8 60C343 57 300 55 257.2 53C214.3 51 171.7 49 128.8 51C86 53 43 59 21.5 62L0 65Z" fill="#5b1b95"></path><path d="M0 253L21.5 260C43 267 86 281 128.8 286C171.7 291 214.3 287 257.2 283C300 279 343 275 385.8 285C428.7 295 471.3 319 514.2 317C557 315 600 287 642.8 267C685.7 247 728.3 235 771.2 231C814 227 857 231 878.5 233L900 235L900 107L878.5 107C857 107 814 107 771.2 111C728.3 115 685.7 123 642.8 132C600 141 557 151 514.2 154C471.3 157 428.7 153 385.8 146C343 139 300 129 257.2 127C214.3 125 171.7 131 128.8 136C86 141 43 145 21.5 147L0 149Z" fill="#7b2cbf"></path><path d="M0 313L21.5 322C43 331 86 349 128.8 352C171.7 355 214.3 343 257.2 337C300 331 343 331 385.8 341C428.7 351 471.3 371 514.2 369C557 367 600 343 642.8 325C685.7 307 728.3 295 771.2 294C814 293 857 303 878.5 308L900 313L900 233L878.5 231C857 229 814 225 771.2 229C728.3 233 685.7 245 642.8 265C600 285 557 313 514.2 315C471.3 317 428.7 293 385.8 283C343 273 300 277 257.2 281C214.3 285 171.7 289 128.8 284C86 279 43 265 21.5 258L0 251Z" fill="#7b2cbf"></path><path d="M0 481L21.5 483C43 485 86 489 128.8 493C171.7 497 214.3 501 257.2 504C300 507 343 509 385.8 510C428.7 511 471.3 511 514.2 511C557 511 600 511 642.8 506C685.7 501 728.3 491 771.2 493C814 495 857 509 878.5 516L900 523L900 311L878.5 306C857 301 814 291 771.2 292C728.3 293 685.7 305 642.8 323C600 341 557 365 514.2 367C471.3 369 428.7 349 385.8 339C343 329 300 329 257.2 335C214.3 341 171.7 353 128.8 350C86 347 43 329 21.5 320L0 311Z" fill="#5b1b95"></path><path d="M0 601L21.5 601C43 601 86 601 128.8 601C171.7 601 214.3 601 257.2 601C300 601 343 601 385.8 601C428.7 601 471.3 601 514.2 601C557 601 600 601 642.8 601C685.7 601 728.3 601 771.2 601C814 601 857 601 878.5 601L900 601L900 521L878.5 514C857 507 814 493 771.2 491C728.3 489 685.7 499 642.8 504C600 509 557 509 514.2 509C471.3 509 428.7 509 385.8 508C343 507 300 505 257.2 502C214.3 499 171.7 495 128.8 491C86 487 43 483 21.5 481L0 479Z" fill="#3c096c"></path></svg>