<svg id="visual" viewBox="0 0 675 900" width="675" height="900" xmlns="http://www.w3.org/2000/svg" xmlns:xlink="http://www.w3.org/1999/xlink" version="1.1"><rect x="0" y="0" width="675" height="900" fill="#7b2cbf"></rect><defs><linearGradient id="grad1_0" x1="0%" y1="0%" x2="100%" y2="100%"><stop offset="30%" stop-color="#3c096c" stop-opacity="1"></stop><stop offset="70%" stop-color="#3c096c" stop-opacity="1"></stop></linearGradient></defs><defs><linearGradient id="grad1_1" x1="0%" y1="0%" x2="100%" y2="100%"><stop offset="30%" stop-color="#3c096c" stop-opacity="1"></stop><stop offset="70%" stop-color="#501587" stop-opacity="1"></stop></linearGradient></defs><defs><linearGradient id="grad1_2" x1="0%" y1="0%" x2="100%" y2="100%"><stop offset="30%" stop-color="#6520a2" stop-opacity="1"></stop><stop offset="70%" stop-color="#501587" stop-opacity="1"></stop></linearGradient></defs><defs><linearGradient id="grad1_3" x1="0%" y1="0%" x2="100%" y2="100%"><stop offset="30%" stop-color="#6520a2" stop-opacity="1"></stop><stop offset="70%" stop-color="#7b2cbf" stop-opacity="1"></stop></linearGradient></defs><defs><linearGradient id="grad2_0" x1="0%" y1="0%" x2="100%" y2="100%"><stop offset="30%" stop-color="#3c096c" stop-opacity="1"></stop><stop offset="70%" stop-color="#3c096c" stop-opacity="1"></stop></linearGradient></defs><defs><linearGradient id="grad2_1" x1="0%" y1="0%" x2="100%" y2="100%"><stop offset="30%" stop-color="#501587" stop-opacity="1"></stop><stop offset="70%" stop-color="#3c096c" stop-opacity="1"></stop></linearGradient></defs><defs><linearGradient id="grad2_2" x1="0%" y1="0%" x2="100%" y2="100%"><stop offset="30%" stop-color="#501587" stop-opacity="1"></stop><stop offset="70%" stop-color="#6520a2" stop-opacity="1"></stop></linearGradient></defs><defs><linearGradient id="grad2_3" x1="0%" y1="0%" x2="100%" y2="100%"><stop offset="30%" stop-color="#7b2cbf" stop-opacity="1"></stop><stop offset="70%" stop-color="#6520a2" stop-opacity="1"></stop></linearGradient></defs><g transform="translate(675, 0)"><path d="M0 534.4C-78 535.6 -156.1 536.8 -204.5 493.7C-252.9 450.6 -271.7 363.1 -306.9 306.9C-342.1 250.7 -393.6 225.8 -434.2 179.9C-474.9 133.9 -504.6 67 -534.4 0L0 0Z" fill="#7026b1"></path><path d="M0 400.8C-58.5 401.7 -117.1 402.6 -153.4 370.3C-189.7 337.9 -203.8 272.3 -230.2 230.2C-256.5 188 -295.2 169.3 -325.7 134.9C-356.1 100.4 -378.5 50.2 -400.8 0L0 0Z" fill="#5b1b95"></path><path d="M0 267.2C-39 267.8 -78 268.4 -102.2 246.8C-126.5 225.3 -135.9 181.5 -153.4 153.4C-171 125.3 -196.8 112.9 -217.1 89.9C-237.4 67 -252.3 33.5 -267.2 0L0 0Z" fill="#460f79"></path><path d="M0 133.6C-19.5 133.9 -39 134.2 -51.1 123.4C-63.2 112.6 -67.9 90.8 -76.7 76.7C-85.5 62.7 -98.4 56.4 -108.6 45C-118.7 33.5 -126.2 16.7 -133.6 0L0 0Z" fill="#3c096c"></path></g><g transform="translate(0, 900)"><path d="M0 -534.4C70.4 -528.6 140.9 -522.7 204.5 -493.7C268.1 -464.7 324.9 -412.4 353.6 -353.6C382.3 -294.7 382.9 -229.2 408.4 -169.1C433.8 -109.1 484.1 -54.6 534.4 0L0 0Z" fill="#7026b1"></path><path d="M0 -400.8C52.8 -396.4 105.7 -392 153.4 -370.3C201.1 -348.5 243.6 -309.3 265.2 -265.2C286.7 -221 287.2 -171.9 306.3 -126.9C325.4 -81.8 363.1 -40.9 400.8 0L0 0Z" fill="#5b1b95"></path><path d="M0 -267.2C35.2 -264.3 70.4 -261.4 102.2 -246.8C134 -232.3 162.4 -206.2 176.8 -176.8C191.1 -147.3 191.4 -114.6 204.2 -84.6C216.9 -54.6 242 -27.3 267.2 0L0 0Z" fill="#460f79"></path><path d="M0 -133.6C17.6 -132.1 35.2 -130.7 51.1 -123.4C67 -116.2 81.2 -103.1 88.4 -88.4C95.6 -73.7 95.7 -57.3 102.1 -42.3C108.5 -27.3 121 -13.6 133.6 0L0 0Z" fill="#3c096c"></path></g></svg>